<svg xmlns="http://www.w3.org/2000/svg" xmlns:xlink="http://www.w3.org/1999/xlink" x="0" y="0" width="702" height="312" style="
        width:702px;
        height:312px;
        background: #FFF;
        fill: none;
">
        <svg xmlns="http://www.w3.org/2000/svg"/>
        
        <svg xmlns="http://www.w3.org/2000/svg" class="role-diagram-draw-area" style="overflow: visible;"><g class="shapes-region" style="stroke: black; fill: none;"><g class="composite-shape"><path class="real" d=" M79.51,63.5 L149.51,63.5 L149.51,228.5 L79.51,228.5 Z" style="stroke-width: 1; stroke: rgb(0, 0, 0); fill: none; fill-opacity: 1;"/></g><g class="composite-shape"><path class="real" d=" M583.05,184 L115.88,184 C104.36,184 95.02,166.66 95.02,145.27 C95.02,123.87 104.36,106.53 115.88,106.53 L583.05,106.53 C594.57,106.53 603.9,123.87 603.9,145.27 C603.9,166.66 594.57,184 583.05,184 C571.53,184 562.2,166.66 562.2,145.27 C562.2,123.87 571.53,106.53 583.05,106.53" style="stroke-width: 3; stroke: rgb(0, 0, 0); fill: rgb(200, 200, 200); fill-opacity: 1;"/></g><g class="composite-shape"><path class="real" d=" M95.03,146 C95.03,124.46 103.75,107 114.51,107 C125.28,107 134,124.46 134,146 C134,167.54 125.28,185 114.51,185 C103.75,185 95.03,167.54 95.03,146 Z" style="stroke-width: 1; stroke: rgb(0, 0, 0); fill: none; fill-opacity: 1; stroke-dasharray: 6, 6;"/></g><g/></g><g/><g/><g/></svg>
        <svg xmlns="http://www.w3.org/2000/svg" xmlns:xlink="http://www.w3.org/1999/xlink" width="700" height="310" style="width:700px;height:310px;font-family:Asana-Math, Asana;background:#FFF;"></svg>
</svg>
